<svg preserveAspectRatio="none" width="100%" height="100%" overflow="visible" style="display: block;" viewBox="0 0 36 36" fill="none" xmlns="http://www.w3.org/2000/svg">
<g id="IconHamburger">
<g id="Vector">
<path d="M8.14752 8C7.56446 8 7.0918 8.49746 7.0918 9.11111C7.0918 9.72476 7.56446 10.2222 8.14752 10.2222H27.8543C28.4373 10.2222 28.91 9.72476 28.91 9.11111C28.91 8.49746 28.4373 8 27.8543 8H8.14752Z" fill="var(--fill-0, #E0E0E0)"/>
<path d="M8.14752 16.8889C7.56446 16.8889 7.0918 17.3864 7.0918 18C7.0918 18.6137 7.56446 19.1111 8.14752 19.1111H27.8543C28.4373 19.1111 28.91 18.6137 28.91 18C28.91 17.3864 28.4373 16.8889 27.8543 16.8889H8.14752Z" fill="var(--fill-0, #E0E0E0)"/>
<path d="M8.14752 25.7778C7.56446 25.7778 7.0918 26.2752 7.0918 26.8889C7.0918 27.5025 7.56446 28 8.14752 28H27.8543C28.4373 28 28.91 27.5025 28.91 26.8889C28.91 26.2752 28.4373 25.7778 27.8543 25.7778H8.14752Z" fill="var(--fill-0, #E0E0E0)"/>
</g>
</g>
</svg>
