<svg preserveAspectRatio="none" width="100%" height="100%" overflow="visible" style="display: block;" viewBox="0 0 16 16" fill="none" xmlns="http://www.w3.org/2000/svg">
<g id="puzyrki_doh98f1txw0q (1) 1" clip-path="url(#clip0_321_222)">
<path id="Vector" d="M8.9375 0C6.61255 0 4.71875 1.89368 4.71875 4.21875C4.71875 6.5437 6.61255 8.4375 8.9375 8.4375C11.2625 8.4375 13.1562 6.5437 13.1562 4.21875C13.1562 1.89368 11.2625 0 8.9375 0ZM10.5969 3.22498C10.4152 3.40674 10.1237 3.41748 9.93127 3.22498C9.40625 2.69067 8.46875 2.69067 7.94373 3.22498C7.75623 3.40308 7.46558 3.40308 7.27808 3.22498C7.09998 3.03748 7.09998 2.74683 7.27808 2.55933C8.1687 1.6781 9.7063 1.6781 10.5969 2.55933C10.775 2.74683 10.775 3.03748 10.5969 3.22498Z" fill="var(--fill-0, #F5F5F7)"/>
<path id="Vector_2" d="M2.34375 3.8125H1.875V3.34375C1.875 3.08472 1.66528 2.875 1.40625 2.875C1.14722 2.875 0.9375 3.08472 0.9375 3.34375V3.8125H0.46875C0.209717 3.8125 0 4.02222 0 4.28125C0 4.54028 0.209717 4.75 0.46875 4.75H0.9375V5.21875C0.9375 5.47778 1.14722 5.6875 1.40625 5.6875C1.66528 5.6875 1.875 5.47778 1.875 5.21875V4.75H2.34375C2.60278 4.75 2.8125 4.54028 2.8125 4.28125C2.8125 4.02222 2.60278 3.8125 2.34375 3.8125Z" fill="var(--fill-0, #F5F5F7)"/>
<path id="Vector_3" d="M3.28125 7.5625C1.47192 7.5625 0 9.03442 0 10.8438C0 12.6531 1.47192 14.125 3.28125 14.125C5.09058 14.125 6.5625 12.6531 6.5625 10.8438C6.5625 9.03442 5.09058 7.5625 3.28125 7.5625ZM4.27502 10.5156C4.07153 10.6989 3.79333 10.6812 3.60938 10.5156C3.43127 10.3281 3.13123 10.3281 2.95312 10.5156C2.76562 10.6937 2.46558 10.6937 2.28748 10.5156C2.09998 10.3281 2.09998 10.0281 2.28748 9.84998C2.8313 9.29688 3.7312 9.29688 4.27502 9.84998C4.46252 10.0281 4.46252 10.3281 4.27502 10.5156Z" fill="var(--fill-0, #F5F5F7)"/>
<path id="Vector_4" d="M10.3438 10.375C8.79688 10.375 7.53125 11.6406 7.53125 13.1875C7.53125 14.7344 8.79688 16 10.3438 16C11.8906 16 13.1562 14.7344 13.1562 13.1875C13.1562 11.6406 11.8906 10.375 10.3438 10.375ZM11.0094 13.1875C10.8276 13.3691 10.5361 13.3799 10.3438 13.1875C10.1562 13.375 9.8656 13.3656 9.6781 13.1875C9.5 13.0094 9.5 12.7094 9.6781 12.5219C10.0343 12.1656 10.6531 12.1656 11.0094 12.5219C11.1875 12.7094 11.1875 13.0094 11.0094 13.1875Z" fill="var(--fill-0, #F5F5F7)"/>
<path id="Vector_5" d="M15.5312 8.5H15.0625V8.03125C15.0625 7.77222 14.8528 7.5625 14.5938 7.5625C14.3347 7.5625 14.125 7.77222 14.125 8.03125V8.5H13.6562C13.3972 8.5 13.1875 8.70972 13.1875 8.96875C13.1875 9.22778 13.3972 9.4375 13.6562 9.4375H14.125V9.90625C14.125 10.1653 14.3347 10.375 14.5938 10.375C14.8528 10.375 15.0625 10.1653 15.0625 9.90625V9.4375H15.5312C15.7903 9.4375 16 9.22778 16 8.96875C16 8.70972 15.7903 8.5 15.5312 8.5Z" fill="var(--fill-0, #F5F5F7)"/>
</g>
<defs>
<clipPath id="clip0_321_222">
<rect width="16" height="16" fill="white"/>
</clipPath>
</defs>
</svg>
