<svg preserveAspectRatio="none" width="100%" height="100%" overflow="visible" style="display: block;" viewBox="0 0 36 36" fill="none" xmlns="http://www.w3.org/2000/svg">
<g id="IconHamburger">
<path id="Vector" d="M27.7174 9.65204C28.0954 9.27411 28.0954 8.66137 27.7174 8.28345C27.3395 7.90552 26.7268 7.90552 26.3489 8.28345L18.0009 16.6314L9.65292 8.28345C9.27499 7.90552 8.66226 7.90552 8.28433 8.28345C7.9064 8.66138 7.9064 9.27412 8.28433 9.65204L16.6323 18L8.28436 26.348C7.90644 26.7259 7.90644 27.3386 8.28436 27.7166C8.66229 28.0945 9.27503 28.0945 9.65296 27.7166L18.0009 19.3686L26.3488 27.7166C26.7267 28.0945 27.3395 28.0945 27.7174 27.7166C28.0953 27.3386 28.0953 26.7259 27.7174 26.348L19.3695 18L27.7174 9.65204Z" fill="var(--fill-0, #E0E0E0)"/>
</g>
</svg>
