<svg preserveAspectRatio="none" width="100%" height="100%" overflow="visible" style="display: block;" viewBox="0 0 16 16" fill="none" xmlns="http://www.w3.org/2000/svg">
<g id="IconDropFilled">
<path id="Vector" d="M8 0C7.50008 0 7.11217 0.216908 6.7604 0.548201C6.43797 0.851861 6.10547 1.29151 5.71516 1.80761L5.68848 1.84288C4.88883 2.9001 3.97676 4.2077 3.26215 5.51756C2.55893 6.80654 2 8.18009 2 9.34655C2 12.9836 4.65142 16 8 16C11.3486 16 14 12.9837 14 9.34655C14 8.18009 13.4411 6.80654 12.7378 5.51756C12.0232 4.2077 11.1112 2.9001 10.3115 1.84288L10.2848 1.80761C9.89454 1.29152 9.56203 0.851861 9.23961 0.548201C8.88784 0.216908 8.49993 0 8 0Z" fill="var(--fill-0, #F5F5F7)"/>
</g>
</svg>
