<svg preserveAspectRatio="none" width="100%" height="100%" overflow="visible" style="display: block;" viewBox="0 0 20 20" fill="none" xmlns="http://www.w3.org/2000/svg">
<g id="IconDropFilled">
<path id="Vector" d="M10 0C9.33343 0 8.81622 0.271135 8.34719 0.685251C7.91729 1.06483 7.47396 1.61439 6.95354 2.25951L6.91797 2.3036C5.85177 3.62512 4.63568 5.25963 3.68287 6.89694C2.74524 8.50818 2 10.2251 2 11.6832C2 16.2296 5.53523 20 10 20C14.4648 20 18 16.2296 18 11.6832C18 10.2251 17.2548 8.50818 16.3171 6.89695C15.3643 5.25963 14.1482 3.62512 13.082 2.3036L13.0465 2.25951C12.526 1.61439 12.0827 1.06483 11.6528 0.685251C11.1838 0.271135 10.6666 0 10 0Z" fill="var(--fill-0, #7F5AF0)"/>
</g>
</svg>
