<svg preserveAspectRatio="none" width="100%" height="100%" overflow="visible" style="display: block;" viewBox="0 0 13.3333 13.3333" fill="none" xmlns="http://www.w3.org/2000/svg">
<path id="Vector" fill-rule="evenodd" clip-rule="evenodd" d="M12.6698 12.8947C13.0886 12.5362 13.3308 12.0133 13.3333 11.4621V9.453C13.3333 8.86807 12.9521 8.35147 12.3932 8.179L10.0754 7.46373C9.65707 7.33467 9.20207 7.41913 8.85793 7.68973L7.933 8.4172C7.35693 8.01367 6.80787 7.5546 6.29327 7.04007C5.77873 6.52547 5.31967 5.9764 4.91613 5.40033L5.6436 4.47539C5.9142 4.13129 5.99867 3.67627 5.8696 3.25795L5.15435 0.940167C4.98187 0.38124 4.46524 0 3.88031 0H1.87127C1.32001 0.00254 0.797106 0.244733 0.438646 0.663547C0.142379 1.00971 -0.025294 1.45131 0.00311266 1.90606C0.182173 4.77216 1.36661 7.58687 3.55653 9.7768C5.74647 11.9667 8.5612 13.1511 11.4273 13.3302C11.882 13.3586 12.3236 13.1909 12.6698 12.8947ZM4.13011 4.7821C3.85753 5.12867 3.84411 5.61287 4.09707 5.974C4.53383 6.59753 5.03031 7.19127 5.5862 7.74713C6.14207 8.303 6.7358 8.79953 7.35933 9.23627C7.72047 9.4892 8.20467 9.4758 8.55127 9.2032L9.47613 8.4758C9.5622 8.40813 9.67593 8.387 9.78053 8.41927L12.0983 9.13453C12.238 9.17767 12.3333 9.3068 12.3333 9.453V11.4593C12.3316 11.7193 12.2171 11.9659 12.0195 12.1349C11.8471 12.2825 11.6553 12.3425 11.4896 12.3322C8.85733 12.1677 6.27473 11.0808 4.26363 9.06973C2.25256 7.0586 1.16562 4.47602 1.00117 1.84371C0.990819 1.67807 1.05083 1.48619 1.19837 1.31379C1.36749 1.1162 1.61399 1.00174 1.874 1H3.88031C4.02654 1 4.1557 1.09531 4.19882 1.23504L4.91407 3.55283C4.94635 3.6574 4.92523 3.77116 4.85757 3.85719L4.13011 4.7821Z" fill="var(--fill-0, #8E8E93)"/>
</svg>
