<svg preserveAspectRatio="none" width="100%" height="100%" overflow="visible" style="display: block;" viewBox="0 0 20 20" fill="none" xmlns="http://www.w3.org/2000/svg">
<g id="planeta_zemlya_3drxu0hokn17 1" clip-path="url(#clip0_321_343)">
<path id="Vector" d="M10 0C4.48609 0 0 4.48609 0 10C0 15.5139 4.48609 20 10 20C15.5139 20 20 15.5139 20 10C20 4.48609 15.5139 0 10 0ZM17.9028 13.2997C16.9198 15.6457 14.9212 17.4647 12.4594 18.2039C12.5036 18.122 12.5463 18.0391 12.5877 17.9553C12.7992 17.5273 13.0214 17.2256 13.3944 16.9246C13.6798 16.6941 14.2402 16.3371 14.1486 15.8869C14.0825 15.5615 13.7111 15.428 13.4304 15.3485C12.985 15.2223 12.5086 15.1896 12.049 15.1578C11.651 15.13 11.2377 15.1442 10.8492 15.0451C10.2677 14.8971 10.1366 14.3937 10.0998 13.8631C10.067 13.3914 10.074 12.9065 9.84209 12.4797C9.5434 11.9303 8.85595 11.7741 8.28591 11.7217C7.8047 11.6776 7.32409 11.7008 6.84549 11.6207C6.38502 11.5435 5.94893 11.3818 5.47609 11.4001C4.8633 11.4238 4.58809 11.8391 4.3267 12.3194C4.19767 12.5567 3.3827 14.3809 2.90386 14.7899C2.07819 13.571 1.55879 12.1287 1.45535 10.5745C1.52302 10.5562 1.59009 10.531 1.65819 10.4971C1.9246 10.3648 2.11126 10.126 2.40116 10.0314C2.67758 9.9414 3.0347 10.0213 3.31712 10.0489C3.59814 10.0764 3.88353 10.1055 4.16479 10.0673C4.72623 9.99056 5.02372 9.60274 5.1134 9.06135C5.1667 8.73795 5.12512 8.41274 5.13474 8.08712C5.14995 7.57972 5.48293 7.39767 5.94177 7.35451C6.80847 7.27312 8.83019 7.50279 8.87112 6.16893C8.88856 5.59837 8.20949 5.30391 7.76721 5.15163C6.906 4.85535 5.96502 4.95879 5.08419 4.75298C4.61567 4.64349 4.22051 4.35126 3.88916 4.00586C5.4447 2.42079 7.60921 1.43553 10 1.43553C10.5113 1.43553 11.0119 1.48065 11.4986 1.56707C11.2497 1.6133 11.0041 1.67898 10.7651 1.77549C9.50433 2.28381 9.46637 3.71419 10.0174 4.78874C10.3592 5.45516 10.9127 6.01349 11.4908 6.47777C12.0505 6.92702 12.662 7.19251 13.2826 7.5333C14.1059 7.986 14.0065 9.16823 14.2148 9.96479C14.3905 10.6366 14.8123 11.2033 15.4773 11.4358C15.8793 11.5763 16.3514 11.4667 16.7034 11.7467C17.0058 11.9866 17.0768 12.4776 17.2496 12.8076C17.4217 13.1369 17.6507 13.2755 17.9028 13.2997Z" fill="var(--fill-0, #7F5AF0)"/>
</g>
<defs>
<clipPath id="clip0_321_343">
<rect width="20" height="20" fill="white"/>
</clipPath>
</defs>
</svg>
