<svg preserveAspectRatio="none" width="100%" height="100%" overflow="visible" style="display: block;" viewBox="0 0 20 20" fill="none" xmlns="http://www.w3.org/2000/svg">
<g id="IconSparkles">
<path id="Vector" d="M15.0007 18C14.8674 18.0001 14.7372 17.9603 14.6268 17.8856C14.5164 17.811 14.4309 17.705 14.3814 17.5813L13.8187 16.1727L12.408 15.5787C12.287 15.5252 12.1845 15.4372 12.1133 15.3257C12.0422 15.2142 12.0055 15.0842 12.008 14.9519C12.0105 14.8196 12.052 14.6911 12.1273 14.5823C12.2026 14.4736 12.3084 14.3895 12.4313 14.3407L13.8234 13.8133L14.3814 12.4186C14.4327 12.2968 14.5188 12.1927 14.629 12.1196C14.7392 12.0464 14.8685 12.0074 15.0007 12.0074C15.1329 12.0074 15.2622 12.0464 15.3724 12.1196C15.4826 12.1927 15.5687 12.2968 15.62 12.4186L16.1807 13.8186L17.5807 14.3793C17.7029 14.4304 17.8072 14.5165 17.8805 14.6267C17.9539 14.7368 17.993 14.8663 17.993 14.9987C17.993 15.131 17.9539 15.2605 17.8805 15.3707C17.8072 15.4809 17.7029 15.5669 17.5807 15.618L16.1807 16.1787L15.62 17.5787C15.5709 17.7029 15.4856 17.8094 15.3751 17.8845C15.2647 17.9597 15.1343 17.9999 15.0007 18ZM8.6673 16C8.37928 16.0035 8.09788 15.9136 7.86522 15.7437C7.63256 15.5739 7.46114 15.3333 7.37662 15.058L6.30061 11.6933L2.92524 10.564C2.65281 10.4729 2.41638 10.2976 2.25009 10.0634C2.0838 9.82919 1.99626 9.54818 2.00012 9.26097C2.00398 8.97375 2.09903 8.6952 2.27155 8.46554C2.44407 8.23588 2.68513 8.067 2.95991 7.98329L6.30861 6.96062L7.43662 3.59127C7.52049 3.31452 7.69397 3.07349 7.92979 2.90611C8.16561 2.73872 8.45037 2.65447 8.7393 2.6666C9.02737 2.66699 9.30757 2.76066 9.53795 2.9336C9.76833 3.10654 9.93651 3.34943 10.0173 3.62594L11.0387 6.96929L14.392 8.04262C14.6625 8.13335 14.8977 8.30675 15.0642 8.53834C15.2308 8.76993 15.3205 9.04801 15.3205 9.3333C15.3205 9.61858 15.2308 9.89666 15.0642 10.1283C14.8977 10.3598 14.6625 10.5332 14.392 10.624L11.0327 11.6986L9.95798 15.058C9.87346 15.3333 9.70204 15.5739 9.46938 15.7437C9.23672 15.9136 8.95532 16.0035 8.6673 16ZM15.6674 6.66662C15.5188 6.66661 15.3744 6.61695 15.2572 6.52551C15.1401 6.43408 15.0568 6.30611 15.0207 6.16195L14.7827 5.20861L13.8274 4.95194C13.6838 4.91336 13.5572 4.82789 13.4678 4.70912C13.3783 4.59034 13.3312 4.44508 13.3338 4.29642C13.3364 4.14777 13.3886 4.00425 13.4821 3.88868C13.5757 3.77311 13.7052 3.69213 13.85 3.6586L14.7834 3.44194L15.0207 2.5046C15.0568 2.36045 15.1401 2.2325 15.2573 2.14108C15.3744 2.04965 15.5188 2 15.6674 2C15.816 2 15.9603 2.04965 16.0775 2.14108C16.1947 2.2325 16.2779 2.36045 16.3141 2.5046L16.5501 3.44994L17.4954 3.6866C17.6396 3.72273 17.7675 3.80599 17.8589 3.92315C17.9503 4.04031 18 4.18466 18 4.33327C18 4.48188 17.9503 4.62623 17.8589 4.7434C17.7675 4.86056 17.6396 4.94382 17.4954 4.97994L16.5501 5.21661L16.3141 6.16195C16.2779 6.30611 16.1947 6.43408 16.0775 6.52551C15.9604 6.61695 15.816 6.66661 15.6674 6.66662Z" fill="var(--fill-0, #F5F5F7)"/>
</g>
</svg>
