<svg preserveAspectRatio="none" width="100%" height="100%" overflow="visible" style="display: block;" viewBox="0 0 14 14" fill="none" xmlns="http://www.w3.org/2000/svg">
<g id="Group">
<path id="Vector" d="M10.0106 6.77172L13.3051 8.53675L14 7.10264L12.0694 6.06836L13.2258 5.67329L12.7528 4.14251L11.5964 4.53758L12.5801 2.5076L11.2162 1.77694L9.53756 5.24094L7.76536 5.84644V3.88715L10.3799 1.13809L9.29748 0L7.76536 1.61093V0.332494H6.23461V1.61093L4.70249 0L3.62009 1.13809L6.23461 3.88715V5.84644L4.46246 5.24094L2.78385 1.77697L1.41992 2.50763L2.40361 4.53755L1.24719 4.14248L0.77416 5.67326L1.93058 6.06836L0 7.10264L0.694929 8.53675L3.98943 6.77172L5.76158 7.37713L4.6663 8.96224L1.01433 9.57041L1.25384 11.1601L3.39388 10.8038L2.67921 11.838L3.91761 12.7841L4.63229 11.7498L4.97125 14L6.48317 13.7482L5.90473 9.90828L6.99998 8.32323L8.09523 9.90828L7.51686 13.7481L9.02878 14L9.36768 11.7498L10.0824 12.7841L11.3208 11.838L10.6061 10.8038L12.7462 11.1601L12.9857 9.57041L9.33367 8.96224L8.23842 7.37713L10.0106 6.77172Z" fill="var(--fill-0, #F5F5F7)"/>
</g>
</svg>
