<svg preserveAspectRatio="none" width="100%" height="100%" overflow="visible" style="display: block;" viewBox="0 0 10.6667 12" fill="none" xmlns="http://www.w3.org/2000/svg">
<g id="Vector">
<path fill-rule="evenodd" clip-rule="evenodd" d="M8 2.66667C8 4.13943 6.80607 5.33333 5.33333 5.33333C3.86057 5.33333 2.66667 4.13943 2.66667 2.66667C2.66667 1.19391 3.86057 0 5.33333 0C6.80607 0 8 1.19391 8 2.66667ZM7 2.66667C7 3.58714 6.2538 4.33333 5.33333 4.33333C4.41287 4.33333 3.66667 3.58714 3.66667 2.66667C3.66667 1.74619 4.41287 1 5.33333 1C6.2538 1 7 1.74619 7 2.66667Z" fill="var(--fill-0, #8E8E93)"/>
<path fill-rule="evenodd" clip-rule="evenodd" d="M10.6667 9.4444C10.6667 9.15553 10.5761 8.8716 10.3877 8.65267C9.16507 7.23253 7.3542 6.33333 5.33333 6.33333C3.31244 6.33333 1.50157 7.23253 0.27898 8.65267C0.0905066 8.8716 0 9.15553 0 9.4444V10.6667C0 11.4031 0.596953 12 1.33333 12H9.33333C10.0697 12 10.6667 11.4031 10.6667 10.6667V9.4444ZM9.33333 11C9.5174 11 9.66667 10.8507 9.66667 10.6667V9.4444C9.66667 9.35893 9.64007 9.31693 9.62987 9.30507C8.58913 8.0962 7.05087 7.33333 5.33333 7.33333C3.6158 7.33333 2.07754 8.0962 1.03683 9.30507C1.02661 9.31693 1 9.35893 1 9.4444V10.6667C1 10.8507 1.14924 11 1.33333 11H9.33333Z" fill="var(--fill-0, #8E8E93)"/>
</g>
</svg>
